<?xml version="1.0" standalone="no"?><!DOCTYPE svg PUBLIC "-//W3C//DTD SVG 1.1//EN" "http://www.w3.org/Graphics/SVG/1.1/DTD/svg11.dtd"><svg t="1612764336226" class="icon" viewBox="0 0 1024 1024" version="1.1" xmlns="http://www.w3.org/2000/svg" p-id="6743" xmlns:xlink="http://www.w3.org/1999/xlink" width="200" height="200"><defs><style type="text/css"></style></defs><path d="M400 461.92a46.24 46.24 0 0 0-24-6.24h-1.12a48 48 0 0 0-18.56 4 41.92 41.92 0 0 0-14.4 10.88 52.32 52.32 0 0 0-9.44 18.08 88.64 88.64 0 0 0 0.96 49.44 50.88 50.88 0 0 0 10.24 18.08 43.2 43.2 0 0 0 16 10.72 46.4 46.4 0 0 0 18.4 3.2 48 48 0 0 0 23.68-6.56A44.64 44.64 0 0 0 417.92 544a75.04 75.04 0 0 0 5.76-32 74.24 74.24 0 0 0-6.4-30.56A41.92 41.92 0 0 0 400 461.92z" fill="#FF6A49" p-id="6744"></path><path d="M512 73.28A438.72 438.72 0 1 0 950.72 512 438.72 438.72 0 0 0 512 73.28zM183.2 629.6c0 4.64-16 10.24-25.44 2.56a19.04 19.04 0 0 1-3.84-20.64l42.56-64-49.76-73.76a168.32 168.32 0 0 1-9.44-16 25.12 25.12 0 0 1-2.72-9.76 16 16 0 0 1 5.6-12.16 19.68 19.68 0 0 1 13.76-4.96 17.12 17.12 0 0 1 13.12 4.64 153.12 153.12 0 0 1 13.28 18.88l38.72 60.96 39.04-60.96 5.92-9.44a59.52 59.52 0 0 1 5.28-7.2 19.2 19.2 0 0 1 6.4-5.12 20.64 20.64 0 0 1 21.76 3.2 16 16 0 0 1 5.28 11.52 23.52 23.52 0 0 1-2.56 10.72c-1.92 3.52-4.96 8.48-9.28 14.88zM452.96 544a73.28 73.28 0 0 1-15.04 26.72 68.8 68.8 0 0 1-25.28 17.44 92.96 92.96 0 0 1-34.56 6.56h-2.08a92.16 92.16 0 0 1-32.8-5.44 70.24 70.24 0 0 1-25.92-16 73.6 73.6 0 0 1-16-26.4 104.16 104.16 0 0 1-5.76-33.6 97.76 97.76 0 0 1 4.8-34.08 73.92 73.92 0 0 1 16-26.56 69.44 69.44 0 0 1 25.12-17.12 96 96 0 0 1 33.76-6.4 90.08 90.08 0 0 1 44.32 9.44A66.72 66.72 0 0 1 448 466.88a96 96 0 0 1 10.24 43.68 104.64 104.64 0 0 1-5.28 33.44z m151.04-18.4a116.64 116.64 0 0 1-3.68 32 48 48 0 0 1-14.4 22.08 53.28 53.28 0 0 1-20.96 11.84 91.84 91.84 0 0 1-28 3.84 122.56 122.56 0 0 1-32.8-3.36 53.12 53.12 0 0 1-22.56-12.48 48 48 0 0 1-12.64-21.44 106.4 106.4 0 0 1-4.16-32v-77.12a20.8 20.8 0 0 1 4.64-14.72 16 16 0 0 1 12-4.96 16 16 0 0 1 12.32 4.96 20.8 20.8 0 0 1 4.64 14.72V528a70.56 70.56 0 0 0 3.04 22.56 26.24 26.24 0 0 0 11.04 14.08 41.12 41.12 0 0 0 22.08 4.96 33.92 33.92 0 0 0 27.84-9.6 49.12 49.12 0 0 0 8.16-32v-80a20.96 20.96 0 0 1 4.48-14.88 16 16 0 0 1 12-4.8 16 16 0 0 1 12.32 4.8 20.96 20.96 0 0 1 4.64 14.88z m146.72 66.56a17.28 17.28 0 0 1-11.84 3.84 20.32 20.32 0 0 1-11.36-2.88 26.56 26.56 0 0 1-7.52-7.68c-1.92-3.2-3.84-6.24-5.28-8.8l-39.68-59.2L647.52 544v33.12a20.64 20.64 0 0 1-4.64 15.04 16 16 0 0 1-12.16 4.8 17.28 17.28 0 0 1-8.32-2.08 17.92 17.92 0 0 1-6.08-5.92 17.12 17.12 0 0 1-1.92-7.2v-131.52a21.28 21.28 0 0 1 4.48-14.88 16 16 0 0 1 12.16-4.96 16 16 0 0 1 12.16 4.96 20.32 20.32 0 0 1 4.64 14.88v56.32l65.92-66.72a54.24 54.24 0 0 1 8-7.04 14.88 14.88 0 0 1 8.96-2.4 16.8 16.8 0 0 1 11.68 4.16 13.28 13.28 0 0 1 4.32 10.08 19.36 19.36 0 0 1-7.52 14.08L698.24 496l46.88 65.44a86.72 86.72 0 0 1 7.52 11.84 23.2 23.2 0 0 1 2.4 9.92 12.48 12.48 0 0 1-4.32 9.6z m74.24-22.88a33.6 33.6 0 0 0 27.52-9.28 49.76 49.76 0 0 0 7.68-32l-1.44-80a20.48 20.48 0 0 1 4.32-14.88 14.88 14.88 0 0 1 11.84-5.12 16 16 0 0 1 12.48 4.64 20.8 20.8 0 0 1 4.8 14.72l1.44 77.44a119.52 119.52 0 0 1-3.2 32 48.96 48.96 0 0 1-13.92 22.4 56.64 56.64 0 0 1-20.8 12.16 96 96 0 0 1-28 4.16 112 112 0 0 1-32-3.36 54.08 54.08 0 0 1-22.72-12 49.6 49.6 0 0 1-13.12-21.28 103.36 103.36 0 0 1-5.44-30.88l-1.44-77.28a22.24 22.24 0 0 1 4.32-14.88 16 16 0 0 1 12-5.28 16.96 16.96 0 0 1 12.48 4.8 21.6 21.6 0 0 1 4.8 14.72l1.44 79.04a74.56 74.56 0 0 0 3.36 22.56 26.88 26.88 0 0 0 11.36 13.76 40 40 0 0 0 20.8 4.64z" fill="#FF6A49" p-id="6745"></path></svg>